<svg xmlns="http://www.w3.org/2000/svg" width="360" height="360" viewBox="0 0 360 360"><g fill="none" fill-rule="evenodd" transform="translate(41 20)"><path stroke="#FFF" stroke-width="16" d="M246.678912,49.0729634 C300.880852,111.235184 271.934386,199.153716 251.763539,220.677252 L251.879291,220.551115 C259.005898,234.930436 253.747396,252.541861 239.606095,260.597694 C230.957027,265.524384 220.915786,265.777589 212.412377,262.156979 L210.978463,263.82879 C194.184924,283.132755 171.104735,299.888826 140.475476,311.364893 C125.637484,316.92412 110.636138,319.681108 96.2375587,319.973847 L94.5126715,319.997169 C52.0392397,320.281744 15.1155043,299.09402 3.61028574,265.199622 C-3.77883401,243.429194 0.500767211,219.89966 13.4656164,199.020656 C8.81768083,177.479645 10.7062201,153.618144 17.6053405,131.01262 C3.77715368,119.252606 -0.32991017,97.2047057 8.85032984,77.4102474 C15.9670531,62.0651495 29.2839348,51.9206172 43.2645203,49.4931344 C43.3514132,49.1070065 43.4495853,48.7257929 43.5520671,48.3466425 C42.4279306,48.0294858 41.3788369,47.7862055 40.4644421,47.5987324 C38.577327,47.1915978 36.1146835,46.8082028 33.4106509,46.7642844 C30.7089966,46.6871307 27.7802225,47.0028677 25.0714335,47.5156437 C19.6276951,48.5316999 15.2731801,50.4652927 14.5953883,49.5703087 C13.8617084,48.6717637 17.3303377,44.7143674 23.1819402,41.9510745 C26.0845539,40.5777369 29.5436703,39.5058926 32.9611679,39.1213106 C36.3703418,38.6975582 39.6808196,38.9290196 42.1577325,39.4631613 C43.4197222,39.7201757 44.8454525,40.1292915 46.3299928,40.6934702 C70.87574,-12.779597 188.974627,-17.1068737 246.678912,49.0729634 Z"/><path fill="#000" d="M81.1374201,110.813093 C70.38788,133.992468 45.492706,145.304402 25.5311428,136.080368 C5.5695797,126.856335 -1.89921032,100.588435 8.85032984,77.4102474 C19.59987,54.2320598 44.495044,42.9189392 64.4566071,52.1429724 C84.4181703,61.3670055 91.8869603,87.6349059 81.1374201,110.813093"/><path stroke="#000" stroke-width="5" d="M81.1374201,110.813093 C70.38788,133.992468 45.492706,145.304402 25.5311428,136.080368 C5.5695797,126.856335 -1.89921032,100.588435 8.85032984,77.4102474 C19.59987,54.2320598 44.495044,42.9189392 64.4566071,52.1429724 C84.4181703,61.3670055 91.8869603,87.6349059 81.1374201,110.813093 Z"/><path fill="#FFF" d="M13.4656164,199.020656 C0.52454938,139.044855 38.2549597,61.0803495 93.7221113,42.321294 C153.763763,22.0144147 220.207575,57.908735 242.128788,122.492398 C260.634883,177.01758 242.137112,273.274657 140.475476,311.364893 C81.1235076,333.601804 19.1578784,311.002863 3.61028574,265.199622 C-3.77883401,243.429194 0.500767211,219.89966 13.4656164,199.020656"/><path fill="#000" d="M246.678912,49.0729634 C183.588386,-23.2842412 48.3023314,-11.3574512 42.0178933,56.9295939 C38.5100235,95.0518785 91.7642443,87.9026889 116.711739,80.8674497 C156.934521,69.5234675 202.939937,86.3501172 222.503148,123.927577 C242.06636,161.505037 233.177775,202.13304 207.796255,229.581987 C202.184853,235.651023 231.592693,242.200787 251.763539,220.677252 C271.934386,199.153716 300.880852,111.235184 246.678912,49.0729634"/><path stroke="#000" stroke-width="5" d="M246.678912,49.0729634 C183.588386,-23.2842412 48.3023314,-11.3574512 42.0178933,56.9295939 C38.5100235,95.0518785 91.7642443,87.9026889 116.711739,80.8674497 C156.934521,69.5234675 202.939937,86.3501172 222.503148,123.927577 C242.06636,161.505037 233.177775,202.13304 207.796255,229.581987 C202.184853,235.651023 231.592693,242.200787 251.763539,220.677252 C271.934386,199.153716 300.880852,111.235184 246.678912,49.0729634 Z"/><path fill="#000" d="M168.141154 98.5146596C167.691671 98.871941 166.438351 98.2796372 164.760519 97.1318261 163.91863 96.5597011 162.979234 95.8380163 161.962547 95.0356168 160.861432 94.3234279 159.690161 93.5257764 158.495107 92.6770846 157.341671 91.7714177 155.995601 91.046172 154.693527 90.2686992 154.050219 89.8758083 153.404533 89.4817304 152.762415 89.0900265 152.107216 88.7291842 151.421101 88.4383737 150.774226 88.1083928 149.463828 87.4804796 148.253316 86.7754126 147.026156 86.368278 145.819211 85.920786 144.758526 85.3854573 143.787024 85.0661593 142.79293 84.7480482 141.668033 84.3527834 140.456332 83.8946085 139.20539 83.5539449 137.860508 83.1895415 136.476386 82.8132684 133.661766 82.2328345 130.603379 81.6761401 127.729304 81.556255 121.968074 81.1348766 117.146239 81.8969187 116.711026 80.8678057 116.217546 79.8054573 120.803937 76.8439385 127.328575 75.6949404 130.567706 75.0337917 134.223025 74.9946213 137.670251 75.2510093 139.382567 75.4433003 141.036617 75.7566635 142.57889 76.0344171 144.080734 76.4569825 145.468424 76.877174 146.671802 77.2724388 149.00721 78.2160891 151.997818 79.566874 154.774386 81.5752467 155.474771 82.0630961 156.217964 82.5141491 156.890999 83.0601606L158.853028 84.7694139C159.493958 85.3462869 160.13132 85.919599 160.760358 86.4857891 161.39772 87.0377355 161.892389 87.7202499 162.43819 88.3161146 163.495308 89.5458274 164.471566 90.728061 165.324156 91.818897 166.076862 92.9975696 166.715413 94.0789097 167.207704 95.0130642 168.193475 96.881373 168.590637 98.1573781 168.141154 98.5146596M64.1621839 58.977137C63.2073298 59.746301 59.5603343 56.4476794 54.7729838 53.5087133 52.4149818 51.9941249 49.7811066 50.5863648 47.2483057 49.5999832 44.7226394 48.587488 42.317073 47.9785665 40.4644421 47.5987324 38.577327 47.1915978 36.1146835 46.8082028 33.4106509 46.7642844 30.7089966 46.6871307 27.7802225 47.0028677 25.0714335 47.5156437 19.6276951 48.5316999 15.2731801 50.4652927 14.5953883 49.5703087 13.8617084 48.6717637 17.3303377 44.7143674 23.1819402 41.9510745 26.0845539 40.5777369 29.5436703 39.5058926 32.9611679 39.1213106 36.3703418 38.6975582 39.6808196 38.9290196 42.1577325 39.4631613 44.6405909 39.9688154 47.7572441 41.0632123 50.7086112 42.7689047 53.6766258 44.4496705 56.4484375 46.7096833 58.5995347 49.0421019 62.9968576 53.6665818 65.0028836 58.336167 64.1621839 58.977137"/><path stroke="#000" stroke-width="5" d="M13.4656164,199.020656 C0.52454938,139.044855 38.2549597,61.0803495 93.7221113,42.321294 C153.763763,22.0144147 220.207575,57.908735 242.128788,122.492398 C260.634883,177.01758 242.137112,273.274657 140.475476,311.364893 C81.1235076,333.601804 19.1578784,311.002863 3.61028574,265.199622 C-3.77883401,243.429194 0.500767211,219.89966 13.4656164,199.020656 Z"/><g transform="translate(197.746 201.152)"><path fill="#FFF" d="M0.117812441,48.0565983 C8.49389219,62.7075108 27.1819202,67.8067833 41.8602746,59.4456857 C56.5374399,51.084588 61.6458497,32.4299869 53.26977,17.7790744 C44.8936902,3.12697488 26.2056622,-1.9722976 11.5273078,6.38880002"/><path fill="#000" d="M43.9041142,4.16202274 C47.0160109,6.03507953 49.8223068,8.40429459 52.2005237,11.1474088 C54.5930098,13.89171 56.4147239,17.0728204 57.8071699,20.4117993 C58.1163381,21.2640521 58.5004201,22.0913782 58.7394309,22.9673705 L59.4564633,25.5929736 C59.7906027,27.3758198 60.1199858,29.1634139 60.1830085,30.9806825 C60.3839678,34.6009761 60.0093987,38.2473832 59.0771377,41.7537265 C58.0925559,45.2446391 56.5574169,48.5753092 54.5394999,51.5902422 C53.5596746,53.1226353 52.3646206,54.4947859 51.1683775,55.8598146 L49.2122942,57.756611 C48.5606628,58.3892721 47.8091462,58.9056091 47.1087614,59.4824821 C44.2073368,61.6510973 41.018148,63.464805 37.5602207,64.6114291 C34.1141845,65.7663621 30.4909711,66.3800315 26.8570558,66.4138896 C24.3837103,66.4322587 20.9138919,66.0191892 17.3358646,64.8357686 C13.7530809,63.6760877 10.1358131,61.6499103 7.32357168,59.1987935 C4.49825006,56.7607335 2.42206675,54.0449199 1.28290088,51.8905485 C0.15443698,49.7254942 -0.21537574,48.2405804 0.117574619,48.0565983 C0.498089315,47.8393807 1.54450473,48.9147859 3.13791002,50.508902 C4.74558461,52.1018312 7.06077872,54.100708 9.81356472,55.8182702 C12.5615943,57.5488892 15.8019148,58.8842434 18.8745709,59.5881234 C21.946038,60.3062472 24.79752,60.4926033 26.8332736,60.4783596 C29.8226922,60.447498 32.7954633,59.9430309 35.6302977,58.9981936 C38.4722669,58.0628522 41.106142,56.5482638 43.4950609,54.7701656 C44.067022,54.291812 44.6948713,53.8763685 45.2264027,53.3517227 L46.8364555,51.79559 C47.8091462,50.6655836 48.8020518,49.548634 49.6023217,48.2833117 C51.2599389,45.8048944 52.5263394,43.0641541 53.3420677,40.1892849 C54.1054754,37.298985 54.4110762,34.2959218 54.2469793,31.3201592 C54.2029822,29.8257495 53.9175962,28.3586404 53.6559924,26.8915313 L53.0638164,24.7347859 C52.8723699,24.0131012 52.5429869,23.3377087 52.2944632,22.6350157 C51.1434063,19.8907145 49.648697,17.2496807 47.6783443,15.0003507 C45.7186936,12.7486468 43.4165797,10.8031842 40.8588075,9.25892126 C39.1131963,8.21437755 36.5625588,6.92650263 33.5517362,5.98522631 C30.5492374,5.02970621 27.0782299,4.53473493 23.8307748,4.62969345 C20.5856979,4.71159517 17.5736863,5.25523269 15.377403,5.81074003 C13.1930109,6.37574322 11.7446768,6.76982108 11.5282591,6.38880002 C11.3344344,6.06238011 12.4105775,4.97035714 14.4855717,3.67892127 C16.5629441,2.40410315 19.7342963,1.11978918 23.4098305,0.453892564 C27.0794191,-0.227434812 31.2270292,-0.134850255 34.9025634,0.685353955 C38.5852322,1.48300552 41.7839338,2.88957858 43.9041142,4.16202274"/><path fill="#000" d="M25.3524769,24.9092722 C27.9815956,25.4279831 30.4275917,26.8250603 32.1886612,28.8251242 C33.9949169,30.8097572 35.0508452,33.4211165 35.2732085,36.0716462 C35.453953,38.7245498 34.8058889,41.466477 33.3206925,43.7003762 C31.8830604,45.9425842 29.6772642,47.6933819 27.1563544,48.6026097 C26.3013854,48.9147859 25.0278503,49.1498082 23.6520518,49.0833373 C22.2774425,49.0263621 20.8195956,48.6322843 19.6495129,47.9865664 C18.4722955,47.3455964 17.5864098,46.5111484 17.1226575,45.7692849 C16.6589052,45.0191126 16.5709112,44.416126 16.8348932,44.1146327 C17.3973415,43.5021503 19.1203596,44.0446008 20.8552688,43.96626 C22.6151493,43.9816908 24.2703882,43.3466557 25.1360592,43.0202358 C26.4357547,42.5478172 27.5772988,41.6504592 28.3311935,40.4729735 C29.1088704,39.3216015 29.4239841,37.9055326 29.345503,36.5215121 C29.2135119,35.1410527 28.6867369,33.7878938 27.7437739,32.7682767 C26.8210258,31.717798 25.5570035,31.0032352 24.2002308,30.7314164 C23.2953193,30.5391254 21.5627883,30.1616653 19.82669,30.4429799 C18.0989155,30.6257751 16.4781607,31.4234266 15.8289075,30.9023418 C15.5233066,30.6447668 15.5173611,30.0346583 15.8633917,29.222763 C16.2094222,28.4191765 16.9585605,27.4612824 18.0251908,26.6505741 C19.0834973,25.8351178 20.4652413,25.2261963 21.8160684,24.9614994 C23.1657065,24.6884937 24.4594565,24.728851 25.3524769,24.9092722"/><path fill="#000" d="M38.8693102,21.8230016 C38.7515885,22.2158925 38.2664322,22.4995811 37.5268068,22.6859372 C37.1558049,22.7797087 36.7217804,22.8485536 36.2342459,22.891285 C35.7467115,22.9316424 35.2056671,22.9387642 34.6182476,23.0289748 C34.0332062,23.0930718 33.405357,23.1381771 32.7454018,23.1595428 C32.0878248,23.2236398 31.4076548,23.3542078 30.6953789,23.4147438 C29.9795356,23.4610361 29.2874745,23.7150501 28.5442817,23.8147566 C28.1661452,23.85274 27.8296276,24.0319742 27.461004,24.1233718 C27.1030823,24.2456309 26.715433,24.3073539 26.3622678,24.4604745 C24.9210684,25.007673 23.6249402,25.6842524 22.4631812,26.4261159 C21.3394738,27.2095236 20.2918693,27.9786877 19.4535478,28.7336079 C17.7198277,30.19953 16.5747163,31.291553 15.7910939,31.0114254 C15.0312536,30.7585983 14.8481309,28.855867 16.0419957,26.2813041 C16.6115787,24.9803724 17.612808,23.5809212 18.9719589,22.2111446 C20.3679722,20.8817253 22.2015774,19.6769391 24.3217577,18.8864094 C24.8437763,18.6715658 25.3919553,18.5706724 25.9175412,18.4234867 C26.4490727,18.3095364 26.9663348,18.1208064 27.4871643,18.0970667 C28.5228778,18.0222869 29.5324308,17.8549225 30.4646918,17.951068 C31.3981419,18.0305958 32.2875951,18.0899449 33.087865,18.2501874 C33.8798112,18.4519742 34.6063565,18.6644439 35.2567988,18.8816615 C35.9143757,19.0739525 36.4637438,19.3683239 36.937009,19.6484516 C37.4102741,19.9250182 37.803869,20.1932761 38.1094699,20.450851 C38.7230498,20.964814 38.9870319,21.4301108 38.8693102,21.8230016"/></g><g transform="translate(19.206 221.342)"><path fill="#FFF" d="M127.947602,8.1888958 C146.947176,1.57503493 149.526353,32.6834458 132.687388,44.8642499 C111.300084,60.3341797 82.3702652,64.4565664 27.3097886,51.1932352 L27.3097886,10.6459475 C27.3097886,10.6459475 69.8560881,28.4103125 127.947602,8.1888958"/><path fill="#000" d="M69.3759261,56.0113118 C73.0015177,56.2166596 76.6485132,56.190546 80.2836177,56.2926264 C83.9520172,56.4267553 87.4646435,56.2961873 91.0474272,56.0362384 C98.1689975,55.4890399 105.243004,54.2391484 112.001896,52.1144515 C118.735817,49.9814458 125.22716,46.9760087 130.598363,42.7278019 C135.91011,38.4997738 140.014912,32.7998887 140.59163,26.4020585 C140.729566,24.8186252 140.749781,23.2067043 140.504825,21.6102142 C140.328837,20.0006673 139.89719,18.4943878 139.314527,17.13292 C138.756835,15.7382168 137.873328,14.630763 136.875666,13.7037305 C135.881571,12.7612672 134.622305,12.1369149 133.225103,11.7380892 C131.851683,11.2799143 130.26779,11.2253131 128.693411,11.2027605 C127.882439,11.2858492 127.08098,11.2917841 126.262873,11.4199781 C125.441199,11.5766597 124.623093,11.6514395 123.799041,11.8662832 C122.976178,12.0846877 122.149747,12.2484912 121.329262,12.5048792 L118.86543,13.3001568 L113.483525,15.0105971 C99.1072041,19.5769149 83.9306132,21.0665767 68.9644946,20.6748728 C58.747675,20.4445984 40.5448032,17.6421351 25.8117498,12.3576935 C10.9716767,7.36050142 -0.346257302,0.737144698 0.00809700911,0.0831178963 C0.394557247,-0.721655554 12.2404554,4.48800621 27.0365315,8.34332209 C41.7672067,12.4918224 59.3779025,14.5179998 69.1785341,14.7435263 C83.554855,15.1138645 98.0548431,13.6906737 111.737914,9.3368256 L116.862971,7.71184794 L119.644296,6.81330295 C120.576557,6.52367946 121.555193,6.32070563 122.510047,6.0726265 C123.46609,5.82810831 124.483967,5.71653205 125.468549,5.53848483 C126.465022,5.38536421 127.50787,5.35806364 128.525747,5.27022701 C130.611443,5.28328381 132.751838,5.36637251 134.892233,6.04176498 C135.965998,6.28628317 137.0029,6.81448993 138.024345,7.28690856 L139.488137,8.19613638 C139.97805,8.4964427 140.387103,8.91426019 140.834208,9.27628954 C142.528687,10.8134306 143.921133,12.70904 144.747564,14.7233476 C145.614424,16.7234114 146.16617,18.7958811 146.399235,20.8315544 C146.703647,22.8660406 146.694134,24.9503801 146.506255,27.013354 C146.304107,29.0834497 145.79279,31.1096271 145.126889,33.0681465 C144.380129,34.9922435 143.508513,36.8700483 142.387183,38.5698057 C140.208737,42.0215479 137.359633,44.8881082 134.311948,47.3617776 C128.129773,52.2414586 121.035553,55.4700482 113.792693,57.7739793 C106.524862,60.0565447 99.0275338,61.3740941 91.4980993,61.9533411 C87.7535968,62.2299078 83.9080202,62.3628497 80.2289187,62.2275338 C76.5177113,62.1242664 72.8065039,62.1480061 69.0952965,61.9390973 C66.567252,61.7646111 63.539782,61.5557023 60.1757942,61.3230539 C56.817752,60.9586506 53.1279486,60.4992888 49.2788046,59.9663341 C41.5959751,58.7021988 33.2781616,56.8611905 25.8474231,54.198791 C18.4083608,51.5791229 11.9431783,48.0086826 7.85621262,44.5889889 C5.7788402,42.9295888 4.34358633,41.2606928 3.46840253,40.0440368 C2.60748803,38.8036411 2.34826239,37.9537624 2.52900687,37.8623648 C2.71450779,37.7650323 3.26982142,38.3276615 4.36142295,39.2451982 C5.4684829,40.1401823 7.04642978,41.4328051 9.21417444,42.719493 C13.4723717,45.3807055 19.8459929,48.1938517 27.139984,50.2057853 C34.422084,52.2557023 42.5329925,53.6136092 50.0219974,54.5477636 C53.7855256,54.9181018 57.3849568,55.2504566 60.6585722,55.5293973 C63.9452679,55.7110055 66.9049588,55.8748089 69.3759261,56.0113118"/><line x1="27.528" x2="27.528" y1="10.646" y2="51.193" stroke="#000" stroke-width="5"/><line x1="50.558" x2="50.558" y1="15.944" y2="56.492" stroke="#000" stroke-width="5"/><line x1="73.588" x2="73.588" y1="17.589" y2="58.136" stroke="#000" stroke-width="5"/><line x1="96.618" x2="96.618" y1="17.589" y2="58.136" stroke="#000" stroke-width="5"/><line x1="119.648" x2="119.648" y1="10.646" y2="51.193" stroke="#000" stroke-width="5"/></g><g fill="#000" transform="translate(34.099 111.933)"><path d="M111.417419,55.9695378 L95.453638,50.5735199 C98.3182002,41.1097165 105.124657,34.7083253 112.063104,35.6662194 C120.163311,36.783169 125.371606,47.5051728 123.694963,59.612384 C122.019509,71.7207821 114.092913,80.6290782 105.992706,79.5121287 C99.3277532,78.592218 94.6295859,71.1676488 94.105189,61.8213565 L111.417419,55.9695378 Z"/><path d="M85.223976 83.2506425C85.0063692 82.9040439 85.3631017 82.259513 86.2275835 81.3740248 86.6592299 80.9312807 87.2169218 80.4291875 87.8911462 79.8760541 88.2336095 79.6054224 88.5998549 79.3169859 88.9886933 79.0095577 89.3977466 78.7353649 89.8543642 78.4860988 90.3288185 78.2095321 91.2836726 77.6670816 92.3491137 77.0925825 93.5120618 76.4990918 94.7285197 76.0314211 96.0555647 75.5661243 97.4634691 75.0948927 98.8820754 74.6628314 100.451699 74.4551097 102.053428 74.1488684 102.862021 74.0408531 103.701532 74.0420401 104.546988 73.9945609 105.394822 73.985065 106.255737 73.8723018 107.124975 73.9933739 107.993024 74.0776496 108.85156 74.1607383 109.698206 74.24264 110.544851 74.3126719 111.351066 74.5714339 112.154904 74.7340503 113.774469 75.0402915 115.239451 75.6622698 116.646166 76.1726719 119.377548 77.4083196 121.680851 78.795901 123.359872 80.2736929 126.784505 83.1461881 128.008097 85.7765391 127.399274 86.2857542 126.771424 86.8460095 124.625084 85.4560541 121.05538 83.7824102 119.301445 82.898109 117.133701 82.0909616 114.755484 81.3051799 113.529513 81.0214913 112.289273 80.588243 110.942013 80.4208786 110.273734 80.3271071 109.610212 80.1241333 108.912205 80.0944587 108.217766 80.0362966 107.513813 79.9781345 106.801538 79.9187855 106.092829 79.8060222 105.380553 79.9116636 104.683735 79.8974198 103.985729 79.9211594 103.294857 79.8808021 102.617065 79.9354032 101.270994 80.1383771 99.9463274 80.1846693 98.7001418 80.4220656 97.4622799 80.7010063 96.2684151 80.9336546 95.1363839 81.1461243 94.0400259 81.490349 93.0007451 81.7906553 92.034 82.0458563 91.5464655 82.1716763 91.0827132 82.2915615 90.6427431 82.4043247 90.2122859 82.5515104 89.8056108 82.6903873 89.4250961 82.8197682 88.6545538 83.0678474 87.9672492 83.2553904 87.3822078 83.3764626 86.210936 83.6186068 85.4415829 83.5972411 85.223976 83.2506425M1.7543912 24.8937658C.980281612 24.6836701.366701665 23.921628.887531155 20.5600964 1.06470831 19.7292094 1.22642706 18.7143402 1.63666946 17.5427894 1.8388179 16.9552336 2.05880295 16.3190115 2.29781375 15.6293753 2.59746907 14.9551698 2.92090656 14.2299241 3.26931533 13.4477033 3.64269538 12.6737914 4.12309518 11.8713919 4.60944053 11.0013344 5.184969 10.1728214 5.72244601 9.24222788 6.48585362 8.35555271 7.91872928 6.54184499 9.82962651 4.60943912 12.4480433 3.03075374 14.9499274 1.51379139 17.4981868.687652277 19.7800858.304257256 22.0703086-.0815117285 24.1024949-.0530241727 25.8433497.128583995 29.3321938.515539961 31.6854394 1.45681628 33.2966813 2.25802879 36.4989503 3.94710345 36.8533046 5.1685074 36.4716008 5.85102176 36.0649257 6.59644614 34.982837 6.70683542 31.8114849 6.18693752 30.2275924 5.96497198 28.0978993 5.59107282 25.320142 5.57326809 22.567356 5.58988583 19.1082396 5.95666311 15.5421034 8.0991647 13.7346586 9.18762673 12.3160522 10.5312898 11.1471587 11.8571481 9.9544829 13.1640147 9.06859712 14.5195476 8.27070537 15.711277 7.52989082 16.9504857 6.87112475 18.0353868 6.36218635 19.0288903 5.80211628 19.9927192 5.39306298 20.8568418 4.99233344 21.5666567 3.45719446 24.4427128 2.57130869 25.1181053 1.7543912 24.8937658M102.556658 11.7521002C102.352132 10.9781883 102.705297 10.0665865 105.882595 8.83449974 106.691188 8.57217683 107.653177 8.20421257 108.874391 7.97156419 109.484404 7.85405303 110.146737 7.72467204 110.864959 7.58579521 111.598639 7.50864141 112.390585 7.42436573 113.243176 7.33534212 114.100523 7.27005813 115.03754 7.28311493 116.035202 7.26768417 117.042377 7.35195986 118.117331 7.35077288 119.268388 7.56561652 121.5598 7.89678436 124.191297 8.58285966 126.871547 10.0559037 129.437643 11.4589158 131.430589 13.2476969 132.905083 15.0281692 134.384334 16.8145763 135.37724 18.5855527 136.090705 20.1796688 137.499798 23.3892668 137.861287 25.8937977 137.973064 27.6885137 138.109811 31.2993114 137.227493 32.2180351 136.445059 32.2287179 135.594847 32.2512706 134.957485 31.3705303 133.821886 28.3698411 133.221386 26.8896752 132.480572 24.8623108 131.107152 22.4527384 129.714706 20.0823363 127.664683 17.2751251 124.022444 15.2643785 122.174569 14.2471353 120.299345 13.694002 118.564436 13.3474034 116.834283 12.9699433 115.214717 12.8832936 113.781842 12.790709 112.335886 12.7693434 111.065918 12.7432298 109.949345 12.8002049 108.833962 12.7978309 107.879108 12.8761717 107.06219 12.8856676 103.800466 12.9972438 102.770698 12.5699305 102.556658 11.7521002M23.7677609 49.917597 6.66243622 44.1346232C9.73271418 33.9954273 17.0255162 27.1370482 24.459822 28.1626002 33.1391244 29.3590776 38.7196103 40.8478714 36.9240565 53.8203921 35.1273137 66.7940998 26.6347013 76.3409919 17.9553989 75.1433276 10.8136137 74.158133 5.78011777 66.201796 5.21766949 56.1884202L23.7677609 49.917597Z"/><path d="M0.0961794981,82.2074045 C-0.164235247,81.8904804 0.109259691,81.2067791 0.854830674,80.2203975 C1.22702161,79.7266132 1.71812339,79.158049 2.31743404,78.5253879 C2.6230349,78.2132118 2.95003972,77.880857 3.29607027,77.5271365 C3.6670721,77.2042775 4.08920559,76.8992233 4.52560838,76.5656815 C5.4031704,75.9069067 6.38894129,75.2042137 7.46746263,74.4682852 C8.61614137,73.8510548 9.87302897,73.2243286 11.2095868,72.5786106 C12.5639813,71.9732501 14.0943639,71.5684894 15.6437722,71.0640223 C16.4333402,70.8563005 17.2657161,70.7506591 18.0992811,70.5975385 C18.9376025,70.4824013 19.7783022,70.2616228 20.6558642,70.2723056 C21.5274807,70.247379 22.3907734,70.2212654 23.2397968,70.1975258 C24.0888202,70.1607293 24.9211961,70.3150369 25.7393027,70.375573 C27.3850288,70.4752794 28.9166004,70.9097147 30.3756364,71.2396955 C33.2413877,72.1216228 35.7016531,73.2088978 37.5530949,74.4635372 C41.3130557,76.8837925 42.8577076,79.3396572 42.3178524,79.9212781 C41.7661061,80.5563132 39.4616139,79.4464855 35.7087877,78.2345774 C33.8573459,77.5781767 31.6063637,77.0487829 29.1472874,76.5692424 C27.8951563,76.4398614 26.6109192,76.1656687 25.2529573,76.1692296 C24.5775438,76.1609208 23.8938064,76.0434096 23.1969889,76.1003847 C22.5025496,76.1312462 21.7962192,76.1609208 21.081565,76.1917823 C20.3645326,76.1692296 19.6712824,76.3627076 18.9780322,76.4363005 C18.2883493,76.5478767 17.5986664,76.594169 16.9327657,76.7342328 C15.6235573,77.1045711 14.315538,77.3170407 13.108593,77.7087446 C11.9147281,78.1408059 10.7601039,78.521827 9.66374589,78.8743605 C8.61970869,79.353901 7.62680316,79.7824013 6.70048769,80.1574875 C6.23197897,80.3426566 5.78725242,80.5195168 5.36511893,80.6868812 C4.95606563,80.8874811 4.5707945,81.0762111 4.20930554,81.2530714 C3.47562564,81.594922 2.81804868,81.8667408 2.25203307,82.0614058 C1.12119096,82.4483617 0.356594243,82.5243285 0.0961794981,82.2074045"/></g><g transform="translate(68.246 180.17)"><path fill="#FFF" d="M29.4360018,28.5532916 C23.6236399,34.6959208 13.9240824,34.9713005 7.77044632,29.169335 C1.61681022,23.3673695 1.34093707,13.6851615 7.15329905,7.54253224 C12.965661,1.40109001 22.6652185,1.12452332 28.8188546,6.92648885"/><path fill="#000" d="M14.6404013,6.27673518 C12.0909529,7.06726485 9.81024292,8.69580346 8.25845642,10.8845973 C6.66148381,13.0330338 5.91115639,15.7334167 5.94564054,18.3993771 C6.06336227,21.0629636 6.96589556,23.7158672 8.68296813,25.7705322 C10.3584219,27.8679285 12.728315,29.3647122 15.3181931,30.0080561 C16.2005116,30.2276477 17.4478863,30.4923446 18.8783838,30.5884901 C20.306503,30.6893835 21.9094211,30.5671244 23.3934285,30.2193388 C24.8762467,29.8798621 26.2556124,29.3682731 27.3079734,28.9468947 C28.3508215,28.5231423 29.1273093,28.2631933 29.4364775,28.5528168 C29.7254308,28.8210746 29.5102022,29.6400919 28.783657,30.7261799 C28.0535444,31.8027721 26.7372014,33.0692814 25.0129941,34.0924594 C23.2959216,35.1239463 21.1626611,35.8278264 19.1316639,36.0509789 C17.0994776,36.2871882 15.1992823,36.0984582 13.891263,35.7696643 C10.04093,34.8188921 6.52354723,32.583806 4.05733636,29.4988411 C1.5233463,26.4411767 0.151115178,22.5051461 0.00366573315,18.5679285 C-0.0736263145,14.6295239 1.0714851,10.6222744 3.42710889,7.42573326 C5.71376439,4.20545248 9.09796697,1.77451439 12.8864664,0.60533762 C14.1742708,0.204137876 16.0613859,-0.0937944783 18.1030851,0.0272776337 C20.1435951,0.134105968 22.313718,0.715726898 24.0866787,1.64750737 C25.866774,2.57216595 27.2532744,3.76033442 28.0428424,4.7941953 C28.8300322,5.83755203 29.0928251,6.64232548 28.8181411,6.92601406 C28.5268095,7.23344226 27.7372415,7.01741163 26.6706113,6.65538228 C25.5968464,6.29335292 24.1901311,5.86129166 22.6906654,5.60609064 C21.1888214,5.34376773 19.5811468,5.31290621 18.1613514,5.49570136 C16.7391777,5.67137462 15.5096396,6.00729038 14.6404013,6.27673518"/></g></g></svg>