<svg xmlns="http://www.w3.org/2000/svg" width="360" height="360" viewBox="0 0 360 360"><g fill="none" fill-rule="evenodd" transform="translate(33 20)"><path fill="#FFF" stroke="#FFF" stroke-width="16" d="M144.037208,0.00078343256 L145.406156,0.00455534358 C178.59198,0.316939139 202.626209,16.6044456 215.827993,20.6767188 C221.806619,22.5210178 227.516938,23.2285915 232.766101,23.2247701 L233.448143,23.2202722 C250.659495,23.0058932 262.744073,15.2259096 262.744073,15.2259096 C263.773212,41.3372301 252.402481,61.1388378 233.832628,76.456662 C260.885897,102.081979 276.121222,140.569934 273.019421,181.495036 C289.565427,201.433345 297.420587,225.38271 292.835911,249.168859 C283.18805,299.212533 222.057669,330.099978 156.528016,316.977336 C124.02322,310.467823 97.8161918,295.720465 77.9432226,276.74652 C69.0921341,280.171428 58.8687294,280.059379 49.6564681,275.603765 C32.221919,267.172008 25.0098836,246.377273 33.5468573,229.158951 C34.1021193,228.038949 34.7103293,226.961654 35.3670478,225.928569 C23.841883,204.621911 13.6516186,187.281797 8.47320731,169.615257 C-1.84044984,134.436225 8.21900001,112.822172 16.2112373,102.220188 C15.6367205,102.403951 15.080366,102.556171 14.5459441,102.688452 C10.3597696,103.661918 7.3293462,103.556136 5.16710556,103.355283 C0.848101794,102.839761 -0.0953964936,101.737748 0.00730651296,100.858013 C0.108640146,99.9046321 1.29725628,99.3288541 5.20407865,98.6151573 C7.13489517,98.2255029 9.79284898,97.8023731 12.9629485,96.707056 C16.0755342,95.5876365 19.7865362,93.7170277 21.190144,89.5727655 C21.8926325,87.437031 21.8816775,85.1553435 21.6721634,83.0838819 C21.4968836,82.0354304 21.4078743,81.0445567 21.1449546,80.0951926 C20.9395486,79.1498456 20.7382507,78.2567202 20.4616373,77.4184947 C19.5112922,74.0508632 18.4993252,71.5602888 17.9159721,69.6816459 C16.6273917,65.9538184 16.8122571,64.6482754 17.6489443,64.183636 C18.4637215,63.7297087 19.5688058,63.9131542 22.0295699,67.1294766 C22.6115536,67.955651 23.2715916,68.9786612 24.0261163,70.2346605 C24.3629822,70.8894405 24.7272355,71.6004593 25.1216151,72.370395 C25.311958,72.7600494 25.5105171,73.1644329 25.7159231,73.5848847 C25.8939417,74.0240828 26.0760683,74.4780101 26.2664112,74.9506836 C26.5277385,75.5987116 26.8006812,76.2801821 27.0467005,77.0184854 C33.5643796,56.3828389 52.4013298,27.9453008 104.9128,7.640404 C119.061628,2.16927997 132.128411,0.0472916587 144.037208,0.00078343256 Z M44.1049326,116.701399 C44.0915377,116.716165 44.0737813,116.739973 44.0565774,116.785745 L44.0439328,116.824313 C44.0297442,116.87411 44.0178477,116.941996 44.0147645,117.033067 L44.0142065,117.105797 C44.0180718,117.335751 44.07401,117.687659 44.2546267,118.218255 C44.467889,117.770313 44.6839636,117.32401 44.9022595,116.879295 C44.3764017,116.766568 44.1049326,116.701399 44.1049326,116.701399 Z"/><path fill="#FFF" d="M273.019421,181.495036 C277.90538,117.029785 237.292209,58.6117228 176.660785,46.9770753 C111.02616,34.3835284 46.7929767,81.3764053 33.1902706,151.940529 C21.7074491,211.513351 63.1072265,298.268595 156.528016,316.977336 C222.057669,330.099978 283.18805,299.212533 292.835911,249.168859 C297.420587,225.38271 289.565427,201.433345 273.019421,181.495036"/><path stroke="#000" stroke-width="5.574" d="M273.019421,181.495036 C277.90538,117.029785 237.292209,58.6117228 176.660785,46.9770753 C111.02616,34.3835284 46.7929767,81.3764053 33.1902706,151.940529 C21.7074491,211.513351 63.1072265,298.268595 156.528016,316.977336 C222.057669,330.099978 283.18805,299.212533 292.835911,249.168859 C297.420587,225.38271 289.565427,201.433345 273.019421,181.495036 Z"/><g fill="#000" transform="translate(104.851 108.936)"><path d="M97.8385975.0935616273C100.119145.494963238 102.222376 2.06056746 103.605435 4.39173145 111.064952 16.9427736 115.717432 31.2815012 117.059572 45.8602421 117.311905 48.5679788 116.53581 51.0894982 114.931789 52.7806266 113.835162 53.9365529 112.473926 54.5352068 111.103143 54.4620993 107.500915 54.2786409 104.498832 51.0991539 104.11283 47.0699645 103.678571 42.3555939 102.843954 37.6689604 101.631755 33.0804593L106.212766 28.2245893 99.1661325 25.2640745C97.3623893 20.3660575 95.1175205 15.635881 92.4618531 11.1672803 90.4186357 7.69812203 90.9751329 3.3378798 93.7617104 1.03706232 94.003132.838430595 94.263649.666007223 94.5391696.523930364 95.4884883.0328686003 96.6273979-.118863967 97.8385975.0935616273ZM6.60352432 23.2425327C8.88555055 23.6425531 10.9888885 25.2095294 12.3720174 27.5406827 19.8319107 40.091667 24.4846252 54.4303286 25.8254691 69.0090024 26.0778151 71.7167266 25.3030447 74.2382343 23.6989426 75.929355 22.6022605 77.0866553 21.2409562 77.6853065 19.8701036 77.61082 16.267694 77.4273624 13.2640946 74.2492694 12.8794375 70.2187192 12.4450993 65.5042642 11.6102776 60.8171682 10.3977582 56.2280701L14.9787234 51.3735254 7.9324904 48.4133414C6.12865614 43.5151683 3.883674 38.7847805 1.22787258 34.3162003-.815447982 30.8470581-.258922757 26.4868359 2.52779547 24.186029 2.7692292 23.9860188 3.02839536 23.8149756 3.30529394 23.67152 4.25329647 23.1818399 5.39226354 23.0301081 6.60352432 23.2425327Z" transform="translate(19.064 23.149)"/><path d="M.416767543 47.6134554C-.386196359 47.253544-.107672501 44.0807864 1.94661078 39.4047065 2.96152455 37.0666666 4.5429966 34.4033221 6.79564321 31.7344405 9.0605177 29.0987815 12.1541705 26.4686596 16.0643737 24.8324469 18.0086061 24.0060349 20.0384337 23.5353815 21.9989699 23.2834435 23.9690167 23.0564225 25.8697722 23.139479 27.6319451 23.3637315 31.1617255 23.870376 34.0869053 25.0705422 36.3259654 26.3413063 40.8068029 28.9368214 42.6858199 31.6790695 42.1124684 32.4030452 41.5377582 33.1754704 38.809583 32.0196011 34.5026531 30.8692688 30.2378415 29.7258579 24.2611271 28.8246951 18.6376625 31.2388702 12.9911007 33.6198226 8.90291396 38.4287929 6.03479755 41.9739203 3.1707571 45.5813402 1.32027176 48.0301221.416767543 47.6134554M91.6505088 24.4647849C90.8475391 24.1048844 91.1274236 20.9322229 93.1803631 16.2549004 94.1952841 13.9183154 95.7767676 11.2550516 98.0294304 8.58486659 100.294321 5.95067163 103.387996 3.31924514 107.298228 1.68446624 109.242474.858079279 111.272316.386055905 113.232867.135509774 115.202928-.092888633 117.103697-.00983466692 118.865883.215795274 122.395688.722424467 125.320889 1.92255428 127.559966 3.19327996 132.040835 5.7887164 133.919866 8.53088151 133.34651 9.25483525 132.771796 10.0258529 130.043601 8.87140277 125.73664 7.72110534 121.471798 6.57772908 115.49504 5.67659354 109.871535 8.08931126 104.224933 10.4701916 100.136716 15.2804005 97.2685793 18.8254206 94.4058769 22.4327312 92.5540195 24.8800547 91.6505088 24.4647849"/></g><g transform="translate(186.553 198.809)"><path fill="#FFF" d="M9.79258637,33.1346065 C18.1824434,36.0295021 27.4013762,31.7725419 30.3840953,23.6259046 C33.3654186,15.4792673 28.9813659,6.52758876 20.5915089,3.6313379 C12.2002562,0.736442328 2.98132333,4.99340253 0,13.1413951"/><path fill="#000" d="M11.8933513,0.276894652 C15.9308493,-0.427486012 20.1917557,0.221780898 23.8120456,2.11312363 C27.484823,3.95069685 30.4281591,7.10293475 32.2113875,10.765983 C33.9313616,14.4599488 34.5208364,18.7292484 33.631241,22.7350774 C32.8143205,26.7328409 30.630034,30.4429375 27.5346188,33.1273806 C26.4862152,34.0441509 24.8200743,35.1060988 22.8363169,35.8266104 C20.8579428,36.5619085 18.5619523,36.892591 16.5041741,36.7218728 C14.4423584,36.5619085 12.6510551,35.9838862 11.4936389,35.3037018 C10.3335312,34.6141078 9.77366476,33.9298907 9.92843552,33.5091442 L9.92843552,33.5091442 C10.0899354,33.0588245 10.9256975,32.892139 12.0615803,32.750994 C13.206884,32.6044721 14.6724958,32.3880498 16.1381076,31.9834342 C17.6091027,31.5841955 19.070677,30.9389613 20.2725056,30.1875323 C21.4797175,29.4414803 22.4473713,28.6403145 23.1243251,28.0515383 C25.1080825,26.3255368 26.5171693,23.9489242 27.0447357,21.354545 C27.630173,18.7803295 27.2291148,16.0461495 26.1349528,13.6520618 C24.9654242,11.2942685 23.0960626,9.25774811 20.7273971,8.0869169 C18.378919,6.85828345 15.6455328,6.44963512 13.0521132,6.89726635 C12.1679011,7.05050947 10.9351184,7.29516077 9.59332318,7.75892285 C8.25018215,8.21596374 6.82763699,8.94185221 5.58947091,9.82904922 C4.349959,10.7095251 3.25714285,11.7082938 2.42138075,12.5027384 C1.59369364,13.2944946 0.936927285,13.8362224 0.486073332,13.6776024 C0.0621360334,13.5310804 -0.116859715,12.6667354 0.0796318584,11.3319072 C0.281506763,10.0064886 0.962498107,8.2536024 2.14010171,6.55582992 C3.30693866,4.85402473 5.01210869,3.28395485 6.83167449,2.21394148 C8.64451113,1.13182996 10.5192561,0.510792048 11.8933513,0.276894652"/></g><g fill="#000" transform="translate(151.149 217.872)"><path d="M95.8696517,37.573883 C90.4260336,43.2346989 84.1781208,48.2205559 77.2701693,52.1497809 C70.3649396,56.0696314 62.8473029,58.9971316 55.0642898,60.6470311 C39.4683237,64.0070943 23.268116,62.9558191 8.1103612,58.6891147 C4.4876333,57.6726587 2.11285487,55.122814 2.86135237,53.4153288 C3.60304535,51.7239139 6.68005053,51.3248311 10.0169885,52.2609348 C24.1431777,56.2450671 39.3254288,57.1985805 53.5890693,54.1117149 C60.7270137,52.5997534 67.565559,49.9253628 73.866547,46.3510269 C80.168896,42.7659775 85.8914996,38.2059874 90.9282073,32.9696992 C91.4875391,32.3121499 93.7030917,30.3368238 96.2575095,27.2847776 C96.9107437,26.5361625 97.6306622,25.7580849 98.3410544,24.9130471 C99.0187849,24.039886 99.7250943,23.1292272 100.447735,22.1984803 C101.16357,21.258359 101.94473,20.3276121 102.657844,19.3339226 C103.353266,18.3255019 104.054132,17.3077068 104.750915,16.2966076 C110.371451,8.20111862 114.665104,-0.363091855 115.605489,0.0118853045 C116.409784,0.309188623 113.670283,9.61665739 108.893508,18.7044967 C108.291988,19.8374634 107.687747,20.9771261 107.088949,22.1074144 C106.461572,23.2229714 105.752541,24.2809427 105.099306,25.338914 C104.433824,26.3915284 103.781951,27.4200372 103.157296,28.4070307 C102.490452,29.3685792 101.801835,30.2604892 101.174458,31.1135622 C98.7275513,34.5794225 96.4725325,36.8694616 95.8696517,37.573883"/><path d="M1.5470213,40.9887032 C1.94034744,40.724334 2.53376284,40.8433694 3.29163517,41.3236632 C3.66988609,41.5631181 4.08925125,41.8925416 4.54287826,42.3063971 C5.00883954,42.7119479 5.4816532,43.2185403 5.90650025,43.853857 C6.35464537,44.4767165 6.82060665,45.1812398 7.29616126,45.9618903 C7.69085787,46.7840649 8.08007259,47.6934398 8.46517589,48.6637165 C8.82561065,49.6450662 9.03255228,50.7482196 9.29157193,51.8735191 C9.42724889,53.0209647 9.5656668,54.2334645 9.52455257,55.4722629 C9.4697336,57.9664692 8.86946583,60.2973478 8.06636785,62.2586632 C7.18926426,64.1936801 6.1710018,65.7937369 5.07599279,66.9259571 C2.94079373,69.2346897 0.909750723,69.876927 0.290296311,69.1807085 C-1.03358192,67.8118017 2.59543419,62.3015713 2.6749217,55.2840209 C2.91201377,48.3121469 -0.216779204,42.1499902 1.5470213,40.9887032"/></g><path fill="#000" d="M45.4113702,245.106383 L61.8670408,235.008671 C61.8670408,235.008671 55.2110133,203.083279 55.0422651,189.989931 C54.8748778,176.896582 72.5825511,155.777752 57.3230874,137.1236 C42.0636238,118.470807 44.1049326,116.701399 44.1049326,116.701399 C44.1049326,116.701399 97.0905043,129.421311 159.460653,111.444776 C215.961358,95.1602463 264.830291,68.1574214 262.744073,15.2259096 C262.744073,15.2259096 241.822019,28.6954103 215.827993,20.6767188 C197.743358,15.0982624 159.33137,-13.4023807 104.9128,7.640404 C35.1708045,34.6079222 24.8281733,75.9208184 23.849706,94.2531361 C23.849706,94.2531361 -7.1183092,116.433882 8.47320731,169.615257 C15.1197087,192.290297 30.0226237,214.427589 45.4113702,245.106383"/><path stroke="#000" stroke-width="5" d="M45.4113702,245.106383 L61.8670408,235.008671 C61.8670408,235.008671 55.2110133,203.083279 55.0422651,189.989931 C54.8748778,176.896582 72.5825511,155.777752 57.3230874,137.1236 C42.0636238,118.470807 44.1049326,116.701399 44.1049326,116.701399 C44.1049326,116.701399 97.0905043,129.421311 159.460653,111.444776 C215.961358,95.1602463 264.830291,68.1574214 262.744073,15.2259096 C262.744073,15.2259096 241.822019,28.6954103 215.827993,20.6767188 C197.743358,15.0982624 159.33137,-13.4023807 104.9128,7.640404 C35.1708045,34.6079222 24.8281733,75.9208184 23.849706,94.2531361 C23.849706,94.2531361 -7.1183092,116.433882 8.47320731,169.615257 C15.1197087,192.290297 30.0226237,214.427589 45.4113702,245.106383 Z"/><path fill="#000" d="M17.6489443,64.183636 C18.4637215,63.7297087 19.5688058,63.9131542 22.0295699,67.1294766 C22.6115536,67.955651 23.2715916,68.9786612 24.0261163,70.2346605 C24.3629822,70.8894405 24.7272355,71.6004593 25.1216151,72.370395 C25.311958,72.7600494 25.5105171,73.1644329 25.7159231,73.5848847 C25.8939417,74.0240828 26.0760683,74.4780101 26.2664112,74.9506836 C26.6470971,75.8946916 27.0524316,76.9096676 27.3632794,78.0679186 C27.5276042,78.6423576 27.7152083,79.2248306 27.8685781,79.8488132 C27.9931911,80.487525 28.1219122,81.1463221 28.2547414,81.8265435 C28.6792472,84.5594802 28.9106713,87.9070265 27.6891902,91.6803806 C26.5320697,95.3171548 23.9508008,98.0353623 21.5146855,99.683694 C19.0320115,101.358806 16.6232836,102.174268 14.5459441,102.688452 C10.3597696,103.661918 7.3293462,103.556136 5.16710556,103.355283 C0.848101794,102.839761 -0.0953964936,101.737748 0.00730651296,100.858013 C0.108640146,99.9046321 1.29725628,99.3288541 5.20407865,98.6151573 C7.13489517,98.2255029 9.79284898,97.8023731 12.9629485,96.707056 C16.0755342,95.5876365 19.7865362,93.7170277 21.190144,89.5727655 C21.8926325,87.437031 21.8816775,85.1553435 21.6721634,83.0838819 C21.4968836,82.0354304 21.4078743,81.0445567 21.1449546,80.0951926 C20.9395486,79.1498456 20.7382507,78.2567202 20.4616373,77.4184947 C19.5112922,74.0508632 18.4993252,71.5602888 17.9159721,69.6816459 C16.6273917,65.9538184 16.8122571,64.6482754 17.6489443,64.183636"/><g transform="translate(25.872 206.979)"><path fill="#FFF" d="M70.8085106,52.7139793 C62.2715369,69.9336499 41.2173109,77.0567979 23.7841277,68.6250413 C6.34957854,60.1932847 -0.86245684,39.3985492 7.67451685,22.1802276 C16.2114905,4.96055691 37.2643506,-2.16394018 54.6988998,6.26916554"/><path fill="#000" d="M20.3416093,11.5939874 C17.5554067,13.5535094 15.0850818,15.9527289 13.0291774,18.6796734 C10.9570743,21.4052524 9.45328082,24.5459495 8.34635926,27.7808676 C8.11552562,28.605642 7.79019867,29.4044715 7.62686024,30.2469977 L7.10984688,32.7663831 C6.91816046,34.4691871 6.70082586,36.1747223 6.75887175,37.8939126 C6.78586984,41.3227346 7.34877995,44.7474601 8.420604,48.0096886 C9.55182384,51.2527998 11.1838582,54.3074692 13.2397625,57.0330482 C14.2373418,58.4272446 15.4414565,59.6384613 16.6266725,60.8646987 L18.5610854,62.5347303 C19.2009401,63.0986903 19.9420376,63.5288293 20.6250892,64.0368029 C23.4598883,65.904835 26.5525192,67.4533352 29.8395363,68.3204408 C33.1184539,69.199836 36.5229127,69.56443 39.9125225,69.3828157 C42.219509,69.2503602 45.437681,68.8297799 48.8650881,67.7810602 C52.296545,66.7528232 55.8710917,64.9831086 58.8597799,62.7969103 C61.8552176,60.6243671 64.3349919,58.1636992 66.041271,56.2178324 C67.7313512,54.2706002 68.8396227,52.9597005 69.2864411,53.1822803 C69.6765634,53.3679911 69.3647355,55.1008366 68.242965,57.6693807 C67.1063455,60.2242696 64.9491984,63.4933257 61.9227128,66.4988364 C58.9137761,69.5152712 54.9599062,72.1042981 50.9844379,73.6964951 C47.0170691,75.3146369 43.1144956,76.0410938 40.3107443,76.1981286 C36.1921861,76.4234395 32.0425802,75.9810109 28.0549627,74.9063462 C24.056546,73.8398747 20.3119114,71.9895944 16.8696553,69.7105407 C16.0354144,69.0987875 15.1458275,68.5594069 14.361533,67.8807432 L12.0086498,65.8447521 C10.5561527,64.3645278 9.1036556,62.8761105 7.88334207,61.1869616 C5.38061941,57.8728433 3.40165964,54.159993 2.03555644,50.2231974 C0.727499131,46.2659189 0.0417477236,42.1051779 0.00935001931,37.9348782 C-0.0513956763,35.8442663 0.194286915,33.7673096 0.444019219,31.695815 L1.06902493,28.6288559 C1.2769102,27.6074465 1.65218361,26.6283683 1.94106314,25.6274418 C3.27881835,21.6933772 5.11468826,17.9081543 7.62821015,14.5858429 C10.1255332,11.2635315 13.13447,8.33995204 16.5254297,5.96258082 C18.8364659,4.34717005 22.3583664,2.50098631 26.4742247,1.31844554 C30.5792838,0.10995988 35.2715513,-0.296965234 39.4778533,0.219201522 C43.6895548,0.71625099 47.3747937,1.96024018 49.8208204,3.27387092 C52.2641473,4.60661894 53.5614053,5.78096659 53.3656692,6.17150546 C53.1469847,6.62349275 51.4785029,6.27528502 48.9622812,5.78642867 C46.4352603,5.30849649 42.9835549,4.90157138 39.3010158,5.04358551 C35.614427,5.1692134 31.7186031,5.98989123 28.3843394,7.30488749 C25.0406263,8.6034975 22.2436245,10.2667015 20.3416093,11.5939874"/><path fill="#000" d="M42.0708824,35.6446913 C40.5597459,36.0630156 39.1843966,36.9944843 38.2177533,38.2940784 C37.2269102,39.561601 36.7294721,41.1860936 36.6797282,42.813375 C36.6891392,44.4420509 37.147589,46.0790932 38.1075102,47.3717152 C39.0418873,48.6964087 40.3930369,49.6641322 41.8947624,50.1215001 C42.8950164,50.4394266 44.8067923,51.0627297 46.7911673,50.9135274 C48.7553758,50.8772726 50.6604295,50.1117392 51.3393654,50.7894245 C51.6579947,51.1226895 51.6028732,51.8366296 51.1323236,52.7513654 C50.661774,53.6563402 49.7220192,54.6993621 48.4407798,55.5374051 C47.1662625,56.3810257 45.5489163,56.9513411 44.0028247,57.1200652 C42.4553887,57.2999447 41.0020626,57.1186708 40.0139084,56.8146885 C37.1045673,55.9362075 34.4910003,54.0467762 32.7069451,51.5242809 C30.8718015,49.0157296 29.9441466,45.8490148 29.9574468,42.7255269 C30.0194345,39.602039 31.0250663,36.4604237 32.920709,34.0020714 C34.7639191,31.5255916 37.4245411,29.705881 40.3540485,28.9040928 C41.3489249,28.6266044 42.8062842,28.4829797 44.3483425,28.7032972 C45.8904009,28.9124593 47.4929584,29.5246072 48.7473092,30.4016938 C50.0070378,31.2745971 50.9212485,32.341324 51.3702872,33.2588486 C51.8179816,34.1833452 51.8556256,34.8986797 51.5289297,35.2235782 C50.8338607,35.8831362 48.9476289,35.0687983 46.9861092,34.9809502 C45.0057676,34.7801545 43.079203,35.3518644 42.0708824,35.6446913"/><path fill="#000" d="M24.5565218,25.4021635 C24.3957843,24.9748966 24.6596617,24.4408129 25.3119881,23.8276056 C25.638821,23.5203427 26.060757,23.1946175 26.5737775,22.8557052 C27.0854586,22.5128366 27.6815269,22.146231 28.4075246,21.8864421 C29.1228066,21.6015975 29.9251546,21.3141154 30.8011741,21.0358644 C31.6892488,20.80245 32.6844819,20.6745337 33.7279362,20.5189241 C34.7700511,20.3474898 35.9166453,20.4622189 37.0860107,20.4740874 C37.6740421,20.4635376 38.2687709,20.6349719 38.8742155,20.7246452 C39.4756417,20.8512428 40.0984995,20.9250914 40.7012652,21.1268564 C43.1417964,21.8547927 45.2889816,23.062745 46.9539543,24.4394941 C48.5787426,25.8610799 49.8030267,27.3446458 50.5370613,28.745132 C52.0627282,31.5170924 51.9930752,33.64024 51.1559007,33.9738774 C50.2946155,34.3378456 48.9296862,33.2076981 46.8762645,31.7043514 C45.8796919,30.9263035 44.647371,30.1469369 43.3293235,29.3557017 C41.969752,28.6158969 40.4641773,27.9552156 38.8045626,27.4501438 C38.3960214,27.305084 37.9566722,27.2642036 37.5467915,27.1534306 C37.1248556,27.0782633 36.7337276,26.9028728 36.3064338,26.8870481 C35.4625618,26.8277055 34.6682506,26.5942911 33.8578657,26.5942911 C33.0541781,26.5771477 32.2799591,26.479562 31.5365482,26.4545063 C30.7917977,26.4769246 30.0845527,26.4716497 29.4215104,26.4426377 C28.7544498,26.3819764 28.1463262,26.4123071 27.5958002,26.4017573 C27.0439348,26.38857 26.5510064,26.3424146 26.127731,26.2646098 C25.2811801,26.110319 24.7172593,25.8281118 24.5565218,25.4021635"/></g></g></svg>