<?xml version="1.0" encoding="UTF-8"?>
<svg width="360px" height="360px" viewBox="0 0 360 360" version="1.1" xmlns="http://www.w3.org/2000/svg" xmlns:xlink="http://www.w3.org/1999/xlink">
    <title>lgtm-thumbs-up-right</title>
    <g id="lgtm-thumbs-up-right" stroke="none" stroke-width="1" fill="none" fill-rule="evenodd" stroke-linecap="round" stroke-linejoin="round">
        <path d="M228.115679,32.4112627 C240.782565,36.9333308 243.313315,58.7302103 240.542603,67.1377753 C239.148015,71.3695707 237.392796,75.5713434 235.615057,79.7286997 L235.053311,81.0400559 L234.305845,82.7843073 C233.871365,83.8001565 233.44054,84.8131111 233.018384,85.8229576 L232.658776,86.6877742 C227.478632,99.2164339 223.858874,111.255573 231.426467,122.395365 L229.037175,110.454068 C252.746912,113.894137 266.329044,133.410685 270.184356,154.501315 L270.689399,149.099771 C280.941578,142.065226 290.885608,141.484822 300.521489,147.35856 C314.975311,156.169167 319.633932,178.780484 319.633932,207.361948 C319.633932,225.920841 312.001347,250.359702 300.521489,265.024179 C289.041632,279.688656 279.192341,285.650985 258.449331,279.688656 L258.849831,275.429636 C244.554935,293.080556 218.544644,304.112946 183.743224,302.356208 L183.046932,302.316877 L182.904649,302.833355 C182.651726,303.691332 182.321509,304.538852 181.913998,305.375918 C177.509108,314.423962 176.217742,318.649966 154.881801,326.146359 C133.545859,333.642752 117.640788,329.779256 108.523751,326.146359 C99.4067133,322.513461 88.3216405,315.613106 94.6855707,297.28935 C72.2470864,290.188687 67.3485025,264.510219 81.3174818,251.08081 L81.4669324,251.060877 L81.1016014,250.917984 C69.7904134,246.405555 61.1861804,236.845285 61.1861804,228.173428 L61.186761,227.117954 C61.2024319,217.014569 61.6386511,209.752255 73.7080619,201.404504 L75.9948374,201.055026 C72.3400113,200.379554 68.5150952,199.590591 64.5200891,198.688137 C50.5143942,193.443007 42.3536937,183.275845 40.0379876,168.186651 C36.5644284,145.552859 56.0977899,127.929692 75.166961,124.82248 C93.83577,121.780505 153.043292,113.273447 166.43058,118.751487 C163.572929,110.161833 163.524747,103.481211 166.18562,84.2352575 C167.698146,73.2952375 174.017975,54.9472289 180.007081,46.7161627 C190.236478,32.6574946 213.305837,27.1241612 228.115679,32.4112627 Z M166.615759,119.303397 L164.165435,120.026306 C165.072562,120.017962 165.971481,120.010752 166.862193,120.004677 C166.777055,119.769423 166.695401,119.535616 166.615759,119.303397 Z" id="Combined-Shape" stroke="#FFFFFF" stroke-width="32" fill="#FFFFFF" transform="translate(179.6339, 180.4389) scale(-1, 1) translate(-179.6339, -180.4389)"></path>
        <g id="Group" transform="translate(179.6339, 180.4389) scale(-1, 1) translate(-179.6339, -180.4389)translate(39.6339, 30.4389)" stroke="#000000">
            <path d="M198.214006,98.9232589 C176.239017,80.4124588 193.568734,58.9715057 200.90867,36.6988984 C203.679383,28.2913334 201.148633,6.49445388 188.481747,1.97238578 C173.671905,-3.31471574 150.602546,2.21861766 140.373149,16.2772857 C134.384043,24.508352 128.064213,42.8563605 126.551687,53.7963806 C123.203507,78.0135891 124.144635,82.3358285 129.572858,95.6010827 C130.740914,98.4555284 132.460641,101.447394 134.429153,105.143545" id="Path" stroke-width="12"></path>
            <path d="M126.995225,88.4554725 C115.368833,82.2381174 54.6021998,91.276391 35.5330286,94.3836029 C16.4638574,97.4908147 -3.06950403,115.113982 0.404055157,137.747774 C2.71976128,152.836968 10.8804618,163.00413 24.8861566,168.24926 C50.9083469,174.127557 69.7139525,175.190654 81.3029733,171.438549 C98.6865045,165.810392 106.786231,157.45805 106.786231,138.138618 C106.786231,118.819186 87.9194808,109.331442 77.9907005,109.331442 C68.0619203,109.331442 56.411755,109.331442 45.4324756,112.910537" id="Path-2" stroke-width="12"></path>
            <path d="M99.9840398,160.868166 C122.947449,162.380733 134.429153,171.502387 134.429153,188.233127 C134.429153,213.329237 120.423522,216.199988 99.9840398,220.641933 C79.5445577,225.083878 53.3977601,225.083878 41.88269,220.641933 C30.3676199,216.199988 21.5522479,206.512162 21.5522479,197.734551 C21.5522479,187.075251 21.588532,179.601232 34.0741294,170.965627" id="Path-3" stroke-width="12"></path>
            <path d="M41.6835493,220.641933 C27.7145701,234.071342 32.613154,259.74981 55.0516382,266.850473 C77.4901225,273.951136 124.96688,266.151839 134.429153,258.170799 C143.891427,250.189759 150.005096,235.138347 146.610213,223.973392 C144.346958,216.530088 138.24266,211.714724 128.297318,209.527299" id="Path-4" stroke-width="12"></path>
            <path d="M55.0516382,266.850473 C48.687708,285.174229 59.7727809,292.074584 68.8898181,295.707482 C78.0068553,299.340379 93.9119265,303.203875 115.247868,295.707482 C136.58381,288.211089 137.875176,283.985085 142.280066,274.937041 C145.216659,268.905011 144.139449,262.330033 139.048436,255.212108" id="Path-5" stroke-width="12"></path>
            <path d="M143.891427,271.589459 C199.508232,275.020095 231.699628,246.291927 231.699628,209.527299" id="Path-6" stroke-width="12"></path>
            <path d="M218.815399,249.249779 C239.558409,255.212108 249.407699,249.249779 260.887557,234.585302 C272.367414,219.920825 280,195.481964 280,176.923071 C280,148.341607 275.341379,125.73029 260.887557,116.919683 C251.251675,111.045945 241.307645,111.626349 231.055466,118.660894" id="Path-7" stroke-width="12"></path>
            <path d="M189.403243,80.0151907 C217.831106,84.1398176 231.699628,111.375826 231.699628,136.725964 C231.699628,162.076103 224.273071,175.55798 210.839811,187.075251" id="Path-8" stroke-width="12"></path>
            <path d="M126.617243,129.976311 C122.75227,153.647318 122.75227,160.951899 132.578293,173.631337 C141.477897,185.11533 151.439453,192.420779 178.666877,192.420779" id="Path-9" stroke-width="10"></path>
        </g>
    </g>
</svg>