<?xml version="1.0" encoding="UTF-8"?>
<svg width="360px" height="360px" viewBox="0 0 360 360" version="1.1" xmlns="http://www.w3.org/2000/svg" xmlns:xlink="http://www.w3.org/1999/xlink">
    <title>lgtm-fist-left-text</title>
    <g id="lgtm-fist-left-text" stroke="none" stroke-width="1" fill="none" fill-rule="evenodd" stroke-linecap="round" stroke-linejoin="round">
        <g id="Group-2" transform="translate(21.7969, 39.9199)">
            <path d="M223.913409,0 C255.489309,0 264.880582,24.7186787 268.221116,42.3721491 C271.56165,60.0256195 276.676445,101.228369 284.070613,119.115295 C287.903623,128.387572 285.671365,139.881757 280.204,149.516804 L280.203,149.964 L280.455027,150.211477 C294.247868,163.61465 316.109178,173.894359 316.109178,207.191638 C316.109178,241.248531 255.38107,251.805604 235.25934,251.805604 C234.920899,251.805604 234.580324,251.806733 234.237765,251.808806 L237.145023,251.974804 C227.578659,268.204256 203.243059,280 149.753129,280 C96.2631982,280 81.4886569,261.620696 81.4886569,256.150412 L81.4886569,243.127847 L84.2122615,243.283288 C58.8576438,235.950285 37.7065948,211.839346 35.1564243,189.319575 L35.098,188.765 L35.1097919,188.878478 C33.1235361,187.688842 31.5345659,186.331406 30.3343414,184.902487 C24.2623796,177.673555 0,149.49378 0,119.115295 C0,88.7368099 3.04340905,68.7398716 20.8496866,57.6443747 C38.6559641,46.5488778 50.7595637,59.1299998 57.3090479,52.2642897 C59.4922093,49.9757196 60.9016666,47.2152868 62.4054493,44.3412704 L62.697915,43.7836871 L62.9892411,43.2330373 C65.8761689,37.8093674 69.4829557,32.1483293 79.5042863,28.6004048 C95.5638932,22.9147054 106.761262,37.533256 115.870266,34.2861041 C124.979269,31.0389522 126.403347,10.2571799 149.753129,6.26721544 C173.10291,2.27725099 180.18775,17.0868105 188.615488,17.0868105 C197.043227,17.0868105 192.33751,0 223.913409,0 Z" id="Combined-Shape" stroke="#FFFFFF" stroke-width="32" fill="#FFFFFF"></path>
            <g id="Group" stroke="#000000">
                <path d="M79.5042863,188.629814 C52.4277084,197.530831 36.4063033,192.131419 30.3343414,184.902487 C24.2623796,177.673555 0,149.49378 0,119.115295 C0,88.7368099 3.04340905,68.7398716 20.8496866,57.6443747 C38.6559641,46.5488778 50.7595637,59.1299998 57.3090479,52.2642897 C63.8585321,45.3985796 63.4446794,34.2861041 79.5042863,28.6004048 C95.5638932,22.9147054 106.761262,37.533256 115.870266,34.2861041 C124.979269,31.0389522 126.403347,10.2571799 149.753129,6.26721544 C173.10291,2.27725099 180.18775,17.0868105 188.615488,17.0868105 C197.043227,17.0868105 192.33751,0 223.913409,0 C255.489309,0 264.880582,24.7186787 268.221116,42.3721491 C271.56165,60.0256195 276.676445,101.228369 284.070613,119.115295 C291.464781,137.002221 276.28806,163.157605 258.857433,168.284709 C241.426806,173.411814 221.366623,175.515989 213.726266,168.284709 C206.494986,173.238208 206.173454,181.075941 188.615488,184.902487 C176.910178,187.453517 163.956058,185.766449 149.753129,179.841281 C138.647727,190.976394 127.35344,196.872911 115.870266,197.530831 C98.6455041,198.51771 93.212361,198.51771 79.5042863,188.629814 Z" id="Path-10" stroke-width="12"></path>
                <path d="M213.726266,168.284709 C202.642088,124.935673 197.099999,92.7684637 197.099999,71.7830814" id="Path-11" stroke-width="8"></path>
                <path d="M149.753129,179.841281 C141.062222,154.167557 134.714358,121.952132 130.709538,83.1950034" id="Path-12" stroke-width="8"></path>
                <path d="M79.5042863,188.629814 C73.5374418,177.100202 69.699577,167.117863 67.9906921,158.682796 C63.9323712,138.650899 63.2981284,110.231029 63.2981284,94.0315771" id="Path-13" stroke-width="8"></path>
                <path d="M280.203125,149.288777 C293.919689,163.157605 316.109178,173.134745 316.109178,207.191638 C316.109178,241.248531 255.38107,251.805604 235.25934,251.805604 C215.13761,251.805604 187.473149,255.794923 183.672071,225.031873 C179.870993,194.268822 188.35179,188.736235 200.765249,183.574749 C213.178707,178.413263 262.023937,173.114132 267.907012,183.574749" id="Path-14" stroke-width="12"></path>
                <path d="M35.084097,188.629814 C37.2998007,211.603944 59.0874425,236.435106 85.0902366,243.530027 C111.093031,250.624948 148.094534,257.140475 187.215287,239.213225" id="Path-15" stroke-width="12"></path>
                <path d="M81.4886569,243.127847 C81.4886569,248.162701 81.4886569,252.503556 81.4886569,256.150412 C81.4886569,261.620696 96.2631982,280 149.753129,280 C203.243059,280 227.578659,268.204256 237.145023,251.974804" id="Path-16" stroke-width="12"></path>
            </g>
            <g id="L" transform="translate(37.5124, 129.2481) rotate(-6) translate(-37.5124, -129.2481)translate(21.8012, 106.0748)" stroke="#000000" stroke-width="8">
                <line x1="9.8677821" y1="2.33691406" x2="9.8677821" y2="42.4204102" id="Path-21"></line>
                <path d="M0.615216352,45.9563195 C-2.27008149,47.8908367 5.70086838,41.9824499 9.8677821,42.4204102 C14.0346958,42.8583704 14.878993,45.2177286 20.4559471,45.8038901 C24.2698997,46.2047527 33.3021002,44.6798072 31.0737584,36.9370868" id="Path-22"></path>
                <path d="M3.30479382,20.3666992 C5.00582781,21.6436368 6.75388452,22.4596652 10.1406907,22.3786621 C12.0901894,22.3320355 15.3894983,20.9776594 16.100204,20.3666992" id="Path-23"></path>
                <path d="M1.33116101,-9.74661785e-14 C3.15079243,0.883080746 6.13804777,2.39033542 10.1260829,2.33691406 C13.2031933,2.29569491 17.3857903,0.95081645 18.9210048,-9.74661785e-14" id="Path-24"></path>
            </g>
            <g id="G" transform="translate(101.8638, 120.2143) rotate(-9) translate(-101.8638, -120.2143)translate(81.7334, 96.2439)" stroke="#000000" stroke-width="8">
                <path d="M32.5102356,6.65478516 C28.2651185,1.609375 25.7172669,1.96138352e-13 19.9526185,1.96138352e-13 C14.18797,1.96138352e-13 -1.59620967,10.0419922 0.131329396,26.4592285 C1.85886846,42.8764648 7.67896353,47.940918 16.2645215,47.940918 C24.8500794,47.940918 32.1274231,45.3613281 35.1352356,23.4853516" id="Path-25"></path>
                <polyline id="Path-26" points="40.2609332 22.0548069 19.5429945 22.6805447 19.5429945 32.4598416"></polyline>
            </g>
            <g id="T" transform="translate(166.591, 107.0237) rotate(-9) translate(-166.591, -107.0237)translate(145.3367, 82.4814)" stroke="#000000" stroke-width="8">
                <line x1="0.791259766" y1="6.65283203" x2="41.5705566" y2="6.65283203" id="Path-27"></line>
                <path d="M42.4469403,0 C42.3594293,8.23763021 42.0673014,13.070638 41.5705566,14.4990234" id="Path-28"></path>
                <path d="M0.791259766,0.990722656 C0.0145670573,9.87972005 0.0145670573,14.9257812 0.791259766,16.1289062" id="Path-29"></path>
                <path d="M22.2068675,6.65283203 C21.8497176,31.5213216 21.1516113,45.3133138 20.1125488,48.0288086" id="Path-30"></path>
                <path d="M12.9626465,26.3837891 C15.9001465,28.2739258 27.4626465,28.2978516 29.8571777,27.3408203" id="Path-31"></path>
                <path d="M13.7243652,49.0844727 C15.2902422,47.7310191 17.7994368,48.0288086 20.2629395,48.0288086 C23.0430632,48.0288086 25.7551112,47.8894718 26.8015137,49.0844727" id="Path-32"></path>
            </g>
            <g id="M" transform="translate(235.3347, 95.1591) rotate(-4) translate(-235.3347, -95.1591)translate(209.8347, 70.9532)" stroke="#000000" stroke-width="8">
                <path d="M11.8794402,45.9442674 C10.8794402,21.3293133 10.6294402,7.99597993 11.1294402,5.94426736" id="Path-33"></path>
                <path d="M45.1076579,42.2112538 C45.6281657,19.312808 45.6281657,6.31280798 45.1076579,3.21125381" id="Path-34"></path>
                <path d="M1.26722834e-13,4.37019394 C6.85798477,2.08797569 28.3389486,14.8571475 28.3389486,27 C28.3389486,14.969151 44.2850931,2.75764067 51,5.46561978e-14" id="Path-35"></path>
                <path d="M5.78202639,48.411865 C8.50062362,46.5090243 16.3461356,43.149227 19.7820264,44.9034397" id="Path-36"></path>
                <path d="M37.6579965,44.2816094 C40.3001896,41.3925576 48.7131852,41.8469905 50.6579965,44.2816094" id="Path-37"></path>
                <path d="M21.8350372,27.6882323 C23.3705985,28.7656249 33.1279528,28.9096678 34.8350372,27.6882323" id="Path-38" transform="translate(28.335, 28.1197) scale(1, -1) translate(-28.335, -28.1197)"></path>
            </g>
        </g>
    </g>
</svg>