<svg xmlns="http://www.w3.org/2000/svg" width="360" height="360" viewBox="0 0 360 360"><g fill="none" fill-rule="evenodd" transform="matrix(-1 0 0 1 335.668 52.164)"><path fill="#FFF" stroke="#FFF" stroke-linejoin="round" stroke-width="32" d="M119.9101,0.563081363 C130.952228,-2.60959808 155.462835,8.36288605 165.025335,15.0376907 C165.025335,12.9158731 170.343694,8.49374543 179.929631,8.49374543 C189.515569,8.49374543 203.50393,20.874689 212.187307,27.9966751 C230.62467,43.1187454 268.555608,99.9976517 261.580999,135.835542 C261.375008,136.893994 261.733971,145.296501 261.72425,149.873541 C268.012343,152.645864 273.174162,156.923676 276.893499,162.650952 C291.632494,185.347016 278.137869,222.210949 237.840778,248.380187 C197.543686,274.549424 159.822924,274.73153 145.083928,252.035467 C143.395365,249.435307 142.081689,246.64767 141.139759,243.71029 C137.93074,244.185644 134.7135,244.528331 131.498967,244.730268 C69.8739674,248.601556 44.9267017,215.331636 38.1923267,204.110933 C31.4579517,192.89023 40.1434986,167.477144 44.9267017,161.040174 C38.1923267,156.206636 11.7567799,141.684866 1.45404548,106.718355 C-8.84868889,71.7518433 38.6063892,43.1929642 49.2870533,44.7154251 C50.9442799,37.8941361 58.586858,27.5982376 70.1708424,21.5591751 C81.7548267,15.5201126 93.4804127,15.0376907 103.00971,15.0376907 C104.301702,8.41757355 108.636254,3.80233918 119.9101,0.563081363 Z"/><path fill="#FFF" stroke="#000" stroke-linejoin="round" stroke-width="12" d="M49.2870533,44.7154251 C38.6063892,43.1929642 -8.84868889,71.7518433 1.45404548,106.718355 C11.7567799,141.684866 38.1923267,156.206636 44.9267017,161.040174 C40.1434986,167.477144 31.4579517,192.89023 38.1923267,204.110933 C44.9267017,215.331636 69.8739674,248.601556 131.498967,244.730268 C190.739497,241.008772 250.899551,189.48493 261.580999,152.694917 C262.010934,151.214095 261.311128,137.222226 261.580999,135.835542 C268.555608,99.9976517 230.62467,43.1187454 212.187307,27.9966751 C203.50393,20.874689 189.515569,8.49374543 179.929631,8.49374543 C170.343694,8.49374543 165.025335,12.9158731 165.025335,15.0376907 C155.462835,8.36288605 130.952228,-2.60959808 119.9101,0.563081363 C108.636254,3.80233918 104.301702,8.41757355 103.00971,15.0376907 C93.4804127,15.0376907 81.7548267,15.5201126 70.1708424,21.5591751 C58.586858,27.5982376 50.9442799,37.8941361 49.2870533,44.7154251 Z"/><path fill="#FFF" stroke="#000" stroke-width="12" d="M211.180737,256.377783 C259.22951,256.377783 290.624592,232.810786 290.624592,205.748834 C290.624592,178.686881 259.22951,158.377398 211.180737,158.377398 C163.131964,158.377398 131.397489,181.862405 131.397489,208.924358 C131.397489,235.986311 163.131964,256.377783 211.180737,256.377783 Z" transform="rotate(-33 211.011 207.378)"/><path fill="#FFF" stroke="#000" stroke-width="8" d="M211.314527,230.864651 C236.995768,230.864651 251.682986,219.397777 251.682986,206.644443 C251.682986,193.891109 236.995768,184.680743 211.314527,184.680743 C185.633286,184.680743 169.368923,196.107686 169.368923,208.86102 C169.368923,221.614354 185.633286,230.864651 211.314527,230.864651 Z" transform="rotate(-33 210.526 207.773)"/><path stroke="#000" stroke-linecap="round" stroke-linejoin="round" stroke-width="12" d="M44.9267017 161.040174C50.1151783 157.945894 61.7665455 146.033784 68.1532642 146.033784 74.539983 146.033784 89.5048267 156.776949 91.845647 181.095308M68.1532642 146.033784C81.0380299 146.033784 49.1952564 132.835542 44.9267017 126.806875"/><path stroke="#000" stroke-linecap="round" stroke-linejoin="round" stroke-width="8" d="M47.758733 46.2720657C61.3163502 46.2720657 103.414983 52.447847 113.00385 76.1763626M101.652288 17.7798782C108.874944 17.7798782 145.110295 42.8462845 145.110295 51.6460892M163.431984 17.7798782C166.825538 17.7798782 181.792913 33.0064407 183.31342 38.8609329"/></g></svg>