<svg xmlns="http://www.w3.org/2000/svg" width="360" height="360" viewBox="0 0 360 360"><g fill="none" fill-rule="evenodd" stroke="#000" transform="matrix(-1 0 0 1 348.668 48.164)"><path fill="#FFF" stroke-linejoin="round" stroke-width="12" d="M82.2552438,44.7154251 C67.5237985,34.7129837 30.7732404,-10.3331179 4.51403286,18.7129837 C-9.95081089,34.7129837 12.6800485,54.7554642 39.3616891,73.1910111 C66.7914769,92.1434865 91.0218454,141.083091 97.7562204,145.916629 C52.2581735,158.226167 64.4261422,192.89023 71.1605172,204.110933 C77.8948922,215.331636 102.842158,248.601556 164.467158,244.730268 C223.707687,241.008772 283.867741,189.48493 294.549189,152.694917 C294.979124,151.214095 294.279319,137.222226 294.549189,135.835542 C301.523798,99.9976517 263.59286,43.1187454 245.155497,27.9966751 C236.47212,20.874689 222.483759,8.49374543 212.897822,8.49374543 C203.311884,8.49374543 197.993525,12.9158731 197.993525,15.0376907 C188.431025,8.36288605 163.920419,-2.60959808 152.878291,0.563081363 C141.604444,3.80233918 137.269892,8.41757355 135.9779,15.0376907 C126.448603,15.0376907 114.723017,15.5201126 103.139033,21.5591751 C91.5550485,27.5982376 83.9124704,37.8941361 82.2552438,44.7154251 Z"/><path fill="#FFF" stroke-width="12" d="M244.148928,256.377783 C292.197701,256.377783 323.592783,232.810786 323.592783,205.748834 C323.592783,178.686881 292.197701,158.377398 244.148928,158.377398 C196.100154,158.377398 164.36568,181.862405 164.36568,208.924358 C164.36568,235.986311 196.100154,256.377783 244.148928,256.377783 Z" transform="rotate(-33 243.98 207.378)"/><path fill="#FFF" stroke-width="8" d="M244.282717,230.864651 C269.963958,230.864651 284.651177,219.397777 284.651177,206.644443 C284.651177,193.891109 269.963958,184.680743 244.282717,184.680743 C218.601476,184.680743 202.337113,196.107686 202.337113,208.86102 C202.337113,221.614354 218.601476,230.864651 244.282717,230.864651 Z" transform="rotate(-33 243.494 207.773)"/><path stroke-linecap="round" stroke-linejoin="round" stroke-width="12" d="M101.121455,146.033784 C107.508173,146.033784 122.473017,156.776949 124.813838,181.095308"/><path stroke-linecap="round" stroke-linejoin="round" stroke-width="8" d="M80.7269235 46.2720657C89.6673532 55.744722 120.236704 72.5777298 136.48083 85.1128861M134.620478 17.7798782C141.843134 17.7798782 178.078486 42.8462845 178.078486 51.6460892M196.400174 17.7798782C199.793729 17.7798782 214.761103 33.0064407 216.281611 38.8609329"/></g></svg>