<?xml version="1.0" encoding="UTF-8"?>
<svg width="360px" height="360px" viewBox="0 0 360 360" version="1.1" xmlns="http://www.w3.org/2000/svg" xmlns:xlink="http://www.w3.org/1999/xlink">
    <title>lgtm-fist-right</title>
    <g id="lgtm-fist-right" stroke="none" stroke-width="1" fill="none" fill-rule="evenodd" stroke-linecap="round" stroke-linejoin="round">
        <g id="Group-2" transform="translate(21.7969, 39.9199)">
            <path d="M223.913409,0 C255.489309,0 264.880582,24.7186787 268.221116,42.3721491 C271.56165,60.0256195 276.676445,101.228369 284.070613,119.115295 C287.903623,128.387572 285.671365,139.881757 280.204,149.516804 L280.203,149.964 L280.455027,150.211477 C294.247868,163.61465 316.109178,173.894359 316.109178,207.191638 C316.109178,241.248531 255.38107,251.805604 235.25934,251.805604 C234.920899,251.805604 234.580324,251.806733 234.237765,251.808806 L237.145023,251.974804 C227.578659,268.204256 203.243059,280 149.753129,280 C96.2631982,280 81.4886569,261.620696 81.4886569,256.150412 L81.4886569,243.127847 L84.2122615,243.283288 C58.8576438,235.950285 37.7065948,211.839346 35.1564243,189.319575 L35.098,188.765 L35.1097919,188.878478 C33.1235361,187.688842 31.5345659,186.331406 30.3343414,184.902487 C24.2623796,177.673555 0,149.49378 0,119.115295 C0,88.7368099 3.04340905,68.7398716 20.8496866,57.6443747 C38.6559641,46.5488778 50.7595637,59.1299998 57.3090479,52.2642897 C59.4922093,49.9757196 60.9016666,47.2152868 62.4054493,44.3412704 L62.697915,43.7836871 L62.9892411,43.2330373 C65.8761689,37.8093674 69.4829557,32.1483293 79.5042863,28.6004048 C95.5638932,22.9147054 106.761262,37.533256 115.870266,34.2861041 C124.979269,31.0389522 126.403347,10.2571799 149.753129,6.26721544 C173.10291,2.27725099 180.18775,17.0868105 188.615488,17.0868105 C197.043227,17.0868105 192.33751,0 223.913409,0 Z" id="Combined-Shape" stroke="#FFFFFF" stroke-width="32" fill="#FFFFFF" transform="translate(158.0546, 140) scale(-1, 1) translate(-158.0546, -140)"></path>
            <g id="Group" transform="translate(158.0546, 140) scale(-1, 1) translate(-158.0546, -140)" stroke="#000000">
                <path d="M79.5042863,188.629814 C52.4277084,197.530831 36.4063033,192.131419 30.3343414,184.902487 C24.2623796,177.673555 0,149.49378 0,119.115295 C0,88.7368099 3.04340905,68.7398716 20.8496866,57.6443747 C38.6559641,46.5488778 50.7595637,59.1299998 57.3090479,52.2642897 C63.8585321,45.3985796 63.4446794,34.2861041 79.5042863,28.6004048 C95.5638932,22.9147054 106.761262,37.533256 115.870266,34.2861041 C124.979269,31.0389522 126.403347,10.2571799 149.753129,6.26721544 C173.10291,2.27725099 180.18775,17.0868105 188.615488,17.0868105 C197.043227,17.0868105 192.33751,0 223.913409,0 C255.489309,0 264.880582,24.7186787 268.221116,42.3721491 C271.56165,60.0256195 276.676445,101.228369 284.070613,119.115295 C291.464781,137.002221 276.28806,163.157605 258.857433,168.284709 C241.426806,173.411814 221.366623,175.515989 213.726266,168.284709 C206.494986,173.238208 206.173454,181.075941 188.615488,184.902487 C176.910178,187.453517 163.956058,185.766449 149.753129,179.841281 C138.647727,190.976394 127.35344,196.872911 115.870266,197.530831 C98.6455041,198.51771 93.212361,198.51771 79.5042863,188.629814 Z" id="Path-10" stroke-width="12"></path>
                <path d="M213.726266,168.284709 C202.642088,124.935673 197.099999,92.7684637 197.099999,71.7830814" id="Path-11" stroke-width="10"></path>
                <path d="M149.753129,179.841281 C141.062222,154.167557 134.714358,121.952132 130.709538,83.1950034" id="Path-12" stroke-width="10"></path>
                <path d="M79.5042863,188.629814 C73.5374418,177.100202 69.699577,167.117863 67.9906921,158.682796 C63.9323712,138.650899 63.2981284,110.231029 63.2981284,94.0315771" id="Path-13" stroke-width="10"></path>
                <path d="M280.203125,149.288777 C293.919689,163.157605 316.109178,173.134745 316.109178,207.191638 C316.109178,241.248531 255.38107,251.805604 235.25934,251.805604 C215.13761,251.805604 187.473149,255.794923 183.672071,225.031873 C179.870993,194.268822 188.35179,188.736235 200.765249,183.574749 C213.178707,178.413263 262.023937,173.114132 267.907012,183.574749" id="Path-14" stroke-width="12"></path>
                <path d="M35.084097,188.629814 C37.2998007,211.603944 59.0874425,236.435106 85.0902366,243.530027 C111.093031,250.624948 148.094534,257.140475 187.215287,239.213225" id="Path-15" stroke-width="12"></path>
                <path d="M81.4886569,243.127847 C81.4886569,248.162701 81.4886569,252.503556 81.4886569,256.150412 C81.4886569,261.620696 96.2631982,280 149.753129,280 C203.243059,280 227.578659,268.204256 237.145023,251.974804" id="Path-16" stroke-width="12"></path>
            </g>
        </g>
    </g>
</svg>