<svg xmlns="http://www.w3.org/2000/svg" width="360" height="360" viewBox="0 0 360 360"><g fill="none" fill-rule="evenodd" stroke-linecap="round" stroke-linejoin="round" transform="translate(39.634 30.439)"><path fill="#FFF" stroke="#FFF" stroke-width="32" d="M188.481747,1.97238578 C201.148633,6.49445388 203.679383,28.2913334 200.90867,36.6988984 C199.514082,40.9306938 197.758863,45.1324664 195.981124,49.2898228 L195.419379,50.6011789 L194.671912,52.3454303 C194.237433,53.3612795 193.806608,54.3742341 193.384452,55.3840806 L193.024844,56.2488973 C187.8447,68.777557 184.224941,80.8166959 191.792535,91.9564878 L189.403243,80.0151907 C213.11298,83.45526 226.695112,102.971808 230.550424,124.062438 L231.055466,118.660894 C241.307645,111.626349 251.251675,111.045945 260.887557,116.919683 C275.341379,125.73029 280,148.341607 280,176.923071 C280,195.481964 272.367414,219.920825 260.887557,234.585302 C249.407699,249.249779 239.558409,255.212108 218.815399,249.249779 L219.215899,244.990759 C204.921003,262.641679 178.910711,273.674069 144.109291,271.917331 L143.413,271.878 L143.270716,272.394478 C143.017794,273.252455 142.687577,274.099975 142.280066,274.937041 C137.875176,283.985085 136.58381,288.211089 115.247868,295.707482 C93.9119265,303.203875 78.0068553,299.340379 68.8898181,295.707482 C59.7727809,292.074584 48.687708,285.174229 55.0516382,266.850473 C32.613154,259.74981 27.7145701,234.071342 41.6835493,220.641933 L41.833,220.622 L41.467669,220.479107 C30.1564809,215.966678 21.5522479,206.406408 21.5522479,197.734551 L21.5528286,196.679077 C21.5684994,186.575692 22.0047186,179.313378 34.0741294,170.965627 L36.3609049,170.616149 C32.7060789,169.940677 28.8811628,169.151714 24.8861566,168.24926 C10.8804618,163.00413 2.71976128,152.836968 0.404055157,137.747774 C-3.06950403,115.113982 16.4638574,97.4908147 35.5330286,94.3836029 C54.2018376,91.3416277 113.40936,82.83457 126.796647,88.3126095 C123.938997,79.7229557 123.890814,73.0423343 126.551687,53.7963806 C128.064213,42.8563605 134.384043,24.508352 140.373149,16.2772857 C150.602546,2.21861766 173.671905,-3.31471574 188.481747,1.97238578 Z M126.981827,88.8645196 L124.531502,89.5874295 C125.438629,89.5790847 126.337549,89.5718748 127.228261,89.5657996 C127.143122,89.3305458 127.061468,89.0967387 126.981827,88.8645196 Z" transform="matrix(-1 0 0 1 280 0)"/><g stroke="#000" transform="matrix(-1 0 0 1 280 0)"><path stroke-width="12" d="M198.214006,98.9232589 C176.239017,80.4124588 193.568734,58.9715057 200.90867,36.6988984 C203.679383,28.2913334 201.148633,6.49445388 188.481747,1.97238578 C173.671905,-3.31471574 150.602546,2.21861766 140.373149,16.2772857 C134.384043,24.508352 128.064213,42.8563605 126.551687,53.7963806 C123.203507,78.0135891 124.144635,82.3358285 129.572858,95.6010827 C130.740914,98.4555284 132.460641,101.447394 134.429153,105.143545"/><path stroke-width="12" d="M126.995225,88.4554725 C115.368833,82.2381174 54.6021998,91.276391 35.5330286,94.3836029 C16.4638574,97.4908147 -3.06950403,115.113982 0.404055157,137.747774 C2.71976128,152.836968 10.8804618,163.00413 24.8861566,168.24926 C50.9083469,174.127557 69.7139525,175.190654 81.3029733,171.438549 C98.6865045,165.810392 106.786231,157.45805 106.786231,138.138618 C106.786231,118.819186 87.9194808,109.331442 77.9907005,109.331442 C68.0619203,109.331442 56.411755,109.331442 45.4324756,112.910537"/><path stroke-width="12" d="M99.9840398,160.868166 C122.947449,162.380733 134.429153,171.502387 134.429153,188.233127 C134.429153,213.329237 120.423522,216.199988 99.9840398,220.641933 C79.5445577,225.083878 53.3977601,225.083878 41.88269,220.641933 C30.3676199,216.199988 21.5522479,206.512162 21.5522479,197.734551 C21.5522479,187.075251 21.588532,179.601232 34.0741294,170.965627"/><path stroke-width="12" d="M41.6835493,220.641933 C27.7145701,234.071342 32.613154,259.74981 55.0516382,266.850473 C77.4901225,273.951136 124.96688,266.151839 134.429153,258.170799 C143.891427,250.189759 150.005096,235.138347 146.610213,223.973392 C144.346958,216.530088 138.24266,211.714724 128.297318,209.527299"/><path stroke-width="12" d="M55.0516382 266.850473C48.687708 285.174229 59.7727809 292.074584 68.8898181 295.707482 78.0068553 299.340379 93.9119265 303.203875 115.247868 295.707482 136.58381 288.211089 137.875176 283.985085 142.280066 274.937041 145.216659 268.905011 144.139449 262.330033 139.048436 255.212108M143.891427 271.589459C199.508232 275.020095 231.699628 246.291927 231.699628 209.527299"/><path stroke-width="12" d="M218.815399,249.249779 C239.558409,255.212108 249.407699,249.249779 260.887557,234.585302 C272.367414,219.920825 280,195.481964 280,176.923071 C280,148.341607 275.341379,125.73029 260.887557,116.919683 C251.251675,111.045945 241.307645,111.626349 231.055466,118.660894"/><path stroke-width="12" d="M189.403243,80.0151907 C217.831106,84.1398176 231.699628,111.375826 231.699628,136.725964 C231.699628,162.076103 224.273071,175.55798 210.839811,187.075251"/><path stroke-width="10" d="M126.617243,129.976311 C122.75227,153.647318 122.75227,160.951899 132.578293,173.631337 C141.477897,185.11533 151.439453,192.420779 178.666877,192.420779"/></g></g></svg>