<svg xmlns="http://www.w3.org/2000/svg" width="360" height="360" viewBox="0 0 360 360"><g fill="none" fill-rule="evenodd" stroke-linecap="round" stroke-linejoin="round" transform="translate(21.797 39.92)"><path fill="#FFF" stroke="#FFF" stroke-width="32" d="M223.913409,0 C255.489309,0 264.880582,24.7186787 268.221116,42.3721491 C271.56165,60.0256195 276.676445,101.228369 284.070613,119.115295 C287.903623,128.387572 285.671365,139.881757 280.204,149.516804 L280.203,149.964 L280.455027,150.211477 C294.247868,163.61465 316.109178,173.894359 316.109178,207.191638 C316.109178,241.248531 255.38107,251.805604 235.25934,251.805604 C234.920899,251.805604 234.580324,251.806733 234.237765,251.808806 L237.145023,251.974804 C227.578659,268.204256 203.243059,280 149.753129,280 C96.2631982,280 81.4886569,261.620696 81.4886569,256.150412 L81.4886569,243.127847 L84.2122615,243.283288 C58.8576438,235.950285 37.7065948,211.839346 35.1564243,189.319575 L35.098,188.765 L35.1097919,188.878478 C33.1235361,187.688842 31.5345659,186.331406 30.3343414,184.902487 C24.2623796,177.673555 0,149.49378 0,119.115295 C0,88.7368099 3.04340905,68.7398716 20.8496866,57.6443747 C38.6559641,46.5488778 50.7595637,59.1299998 57.3090479,52.2642897 C59.4922093,49.9757196 60.9016666,47.2152868 62.4054493,44.3412704 L62.697915,43.7836871 L62.9892411,43.2330373 C65.8761689,37.8093674 69.4829557,32.1483293 79.5042863,28.6004048 C95.5638932,22.9147054 106.761262,37.533256 115.870266,34.2861041 C124.979269,31.0389522 126.403347,10.2571799 149.753129,6.26721544 C173.10291,2.27725099 180.18775,17.0868105 188.615488,17.0868105 C197.043227,17.0868105 192.33751,0 223.913409,0 Z"/><g stroke="#000"><path stroke-width="12" d="M79.5042863,188.629814 C52.4277084,197.530831 36.4063033,192.131419 30.3343414,184.902487 C24.2623796,177.673555 0,149.49378 0,119.115295 C0,88.7368099 3.04340905,68.7398716 20.8496866,57.6443747 C38.6559641,46.5488778 50.7595637,59.1299998 57.3090479,52.2642897 C63.8585321,45.3985796 63.4446794,34.2861041 79.5042863,28.6004048 C95.5638932,22.9147054 106.761262,37.533256 115.870266,34.2861041 C124.979269,31.0389522 126.403347,10.2571799 149.753129,6.26721544 C173.10291,2.27725099 180.18775,17.0868105 188.615488,17.0868105 C197.043227,17.0868105 192.33751,0 223.913409,0 C255.489309,0 264.880582,24.7186787 268.221116,42.3721491 C271.56165,60.0256195 276.676445,101.228369 284.070613,119.115295 C291.464781,137.002221 276.28806,163.157605 258.857433,168.284709 C241.426806,173.411814 221.366623,175.515989 213.726266,168.284709 C206.494986,173.238208 206.173454,181.075941 188.615488,184.902487 C176.910178,187.453517 163.956058,185.766449 149.753129,179.841281 C138.647727,190.976394 127.35344,196.872911 115.870266,197.530831 C98.6455041,198.51771 93.212361,198.51771 79.5042863,188.629814 Z"/><path stroke-width="8" d="M213.726266 168.284709C202.642088 124.935673 197.099999 92.7684637 197.099999 71.7830814M149.753129 179.841281C141.062222 154.167557 134.714358 121.952132 130.709538 83.1950034M79.5042863 188.629814C73.5374418 177.100202 69.699577 167.117863 67.9906921 158.682796 63.9323712 138.650899 63.2981284 110.231029 63.2981284 94.0315771"/><path stroke-width="12" d="M280.203125,149.288777 C293.919689,163.157605 316.109178,173.134745 316.109178,207.191638 C316.109178,241.248531 255.38107,251.805604 235.25934,251.805604 C215.13761,251.805604 187.473149,255.794923 183.672071,225.031873 C179.870993,194.268822 188.35179,188.736235 200.765249,183.574749 C213.178707,178.413263 262.023937,173.114132 267.907012,183.574749"/><path stroke-width="12" d="M35.084097,188.629814 C37.2998007,211.603944 59.0874425,236.435106 85.0902366,243.530027 C111.093031,250.624948 148.094534,257.140475 187.215287,239.213225"/><path stroke-width="12" d="M81.4886569,243.127847 C81.4886569,248.162701 81.4886569,252.503556 81.4886569,256.150412 C81.4886569,261.620696 96.2631982,280 149.753129,280 C203.243059,280 227.578659,268.204256 237.145023,251.974804"/></g><g stroke="#000" stroke-width="8" transform="rotate(-6 1038.626 -131.785)"><line x1="9.868" x2="9.868" y1="2.337" y2="42.42"/><path d="M.615216352 45.9563195C-2.27008149 47.8908367 5.70086838 41.9824499 9.8677821 42.4204102 14.0346958 42.8583704 14.878993 45.2177286 20.4559471 45.8038901 24.2698997 46.2047527 33.3021002 44.6798072 31.0737584 36.9370868M3.30479382 20.3666992C5.00582781 21.6436368 6.75388452 22.4596652 10.1406907 22.3786621 12.0901894 22.3320355 15.3894983 20.9776594 16.100204 20.3666992M1.33116101-9.74661785e-14C3.15079243.883080746 6.13804777 2.39033542 10.1260829 2.33691406 13.2031933 2.29569491 17.3857903.95081645 18.9210048-9.74661785e-14"/></g><g stroke="#000" stroke-width="8" transform="rotate(-9 672.444 -447.168)"><path d="M32.5102356,6.65478516 C28.2651185,1.609375 25.7172669,1.96138352e-13 19.9526185,1.96138352e-13 C14.18797,1.96138352e-13 -1.59620967,10.0419922 0.131329396,26.4592285 C1.85886846,42.8764648 7.67896353,47.940918 16.2645215,47.940918 C24.8500794,47.940918 32.1274231,45.3613281 35.1352356,23.4853516"/><polyline points="40.261 22.055 19.543 22.681 19.543 32.46"/></g><g stroke="#000" stroke-width="8" transform="rotate(-9 617.935 -857.556)"><line x1=".791" x2="41.571" y1="6.653" y2="6.653"/><path d="M42.4469403 0C42.3594293 8.23763021 42.0673014 13.070638 41.5705566 14.4990234M.791259766.990722656C.0145670573 9.87972005.0145670573 14.9257812.791259766 16.1289062M22.2068675 6.65283203C21.8497176 31.5213216 21.1516113 45.3133138 20.1125488 48.0288086"/><path d="M12.9626465 26.3837891C15.9001465 28.2739258 27.4626465 28.2978516 29.8571777 27.3408203M13.7243652 49.0844727C15.2902422 47.7310191 17.7994368 48.0288086 20.2629395 48.0288086 23.0430632 48.0288086 25.7551112 47.8894718 26.8015137 49.0844727"/></g><g stroke="#000" stroke-width="8" transform="rotate(-4 1146.334 -2944.757)"><path d="M11.8794402 45.9442674C10.8794402 21.3293133 10.6294402 7.99597993 11.1294402 5.94426736M45.1076579 42.2112538C45.6281657 19.312808 45.6281657 6.31280798 45.1076579 3.21125381"/><path d="M1.26722834e-13 4.37019394C6.85798477 2.08797569 28.3389486 14.8571475 28.3389486 27 28.3389486 14.969151 44.2850931 2.75764067 51 5.46561978e-14M5.78202639 48.411865C8.50062362 46.5090243 16.3461356 43.149227 19.7820264 44.9034397M37.6579965 44.2816094C40.3001896 41.3925576 48.7131852 41.8469905 50.6579965 44.2816094"/><path d="M21.8350372,27.6882323 C23.3705985,28.7656249 33.1279528,28.9096678 34.8350372,27.6882323" transform="matrix(1 0 0 -1 0 56.24)"/></g></g></svg>